<svg xmlns="http://www.w3.org/2000/svg" viewBox="0 0 387 375" width="387" height="375"><defs></defs><g transform="matrix(1,0,0,1,-38.783759862,-47.403560052)">
<g>
	<g transform="matrix(1.5,0,0,1.5,-127.22,-102.07)">
		<path d="M239.759036,191.189759C261.439677,191.189759 279.050879,209.282821 279.050879,231.556667 C279.050879,253.830512 261.439677,271.923575 239.759036,271.923575 C218.078395,271.923575 200.467193,253.830512 200.467193,231.556667 C200.467193,209.282821 218.078395,191.189759 239.759036,191.189759 Z" fill="#b1ddeb"/>
	</g>
	<g transform="matrix(1.5,0,0,1.5,-127.22,-102.07)">
		<g transform="matrix(1,0,0,1,0,-72.4)">
			<path d="M151.807229,345.783133C151.077201,340.946762 150.347173,336.110392 151.583795,332.297671 C152.820417,328.484951 156.023689,325.695881 162.048193,326.807229 C168.072696,327.918577 176.918431,332.930343 175.279431,338.764697 C173.640431,344.599051 161.516697,351.255993 167.437193,348.615942 C173.357688,345.975892 197.322413,334.038849 211.134967,319.5 C224.947521,304.961151 228.607905,287.820496 223.634967,270 C218.66203,252.179504 205.055771,233.679169 190.134967,228 C175.214164,222.320831 158.978816,229.46283 145.634967,240 C132.291119,250.53717 121.838771,264.469512 123.5,282.615695 C125.161229,300.761879 138.936036,323.121903 152.710843,345.481928 " transform="matrix(0.967198626,-0.254021294,0.254021294,0.967198626,0,0)" fill="#46a2c2" stroke="#efefef" stroke-width="2" stroke-linecap="round"/>
		</g>
		<g transform="matrix(0.309016994,0.951056516,-0.951056516,0.309016994,457.579313084,-89.476151834)">
			<path d="M151.807229,345.783133C151.077201,340.946762 150.347173,336.110392 151.583795,332.297671 C152.820417,328.484951 156.023689,325.695881 162.048193,326.807229 C168.072696,327.918577 176.918431,332.930343 175.279431,338.764697 C173.640431,344.599051 161.516697,351.255993 167.437193,348.615942 C173.357688,345.975892 197.322413,334.038849 211.134967,319.5 C224.947521,304.961151 228.607905,287.820496 223.634967,270 C218.66203,252.179504 205.055771,233.679169 190.134967,228 C175.214164,222.320831 158.978816,229.46283 145.634967,240 C132.291119,250.53717 121.838771,264.469512 123.5,282.615695 C125.161229,300.761879 138.936036,323.121903 152.710843,345.481928 " transform="matrix(0.967198626,-0.254021294,0.254021294,0.967198626,0,0)" fill="#46a2c2" stroke="#efefef" stroke-width="2" stroke-linecap="round"/>
		</g>
		<g transform="matrix(-0.809016994,0.587785252,-0.587785252,-0.809016994,615.219482576,340.430814482)">
			<path d="M151.807229,345.783133C151.077201,340.946762 150.347173,336.110392 151.583795,332.297671 C152.820417,328.484951 156.023689,325.695881 162.048193,326.807229 C168.072696,327.918577 176.918431,332.930343 175.279431,338.764697 C173.640431,344.599051 161.516697,351.255993 167.437193,348.615942 C173.357688,345.975892 197.322413,334.038849 211.134967,319.5 C224.947521,304.961151 228.607905,287.820496 223.634967,270 C218.66203,252.179504 205.055771,233.679169 190.134967,228 C175.214164,222.320831 158.978816,229.46283 145.634967,240 C132.291119,250.53717 121.838771,264.469512 123.5,282.615695 C125.161229,300.761879 138.936036,323.121903 152.710843,345.481928 " transform="matrix(0.967198626,-0.254021294,0.254021294,0.967198626,0,0)" fill="#46a2c2" stroke="#efefef" stroke-width="2" stroke-linecap="round"/>
		</g>
		<g transform="matrix(-0.809016994,-0.587785252,0.587785252,-0.809016994,255.06715223,623.204083498)">
			<path d="M151.807229,345.783133C151.077201,340.946762 150.347173,336.110392 151.583795,332.297671 C152.820417,328.484951 156.023689,325.695881 162.048193,326.807229 C168.072696,327.918577 176.918431,332.930343 175.279431,338.764697 C173.640431,344.599051 161.516697,351.255993 167.437193,348.615942 C173.357688,345.975892 197.322413,334.038849 211.134967,319.5 C224.947521,304.961151 228.607905,287.820496 223.634967,270 C218.66203,252.179504 205.055771,233.679169 190.134967,228 C175.214164,222.320831 158.978816,229.46283 145.634967,240 C132.291119,250.53717 121.838771,264.469512 123.5,282.615695 C125.161229,300.761879 138.936036,323.121903 152.710843,345.481928 " transform="matrix(0.967198626,-0.254021294,0.254021294,0.967198626,0,0)" fill="#46a2c2" stroke="#efefef" stroke-width="2" stroke-linecap="round"/>
		</g>
		<g transform="matrix(0.309016994,-0.951056516,0.951056516,0.309016994,-125.159398543,368.060608545)">
			<path d="M151.807229,345.783133C151.077201,340.946762 150.347173,336.110392 151.583795,332.297671 C152.820417,328.484951 156.023689,325.695881 162.048193,326.807229 C168.072696,327.918577 176.918431,332.930343 175.279431,338.764697 C173.640431,344.599051 161.516697,351.255993 167.437193,348.615942 C173.357688,345.975892 197.322413,334.038849 211.134967,319.5 C224.947521,304.961151 228.607905,287.820496 223.634967,270 C218.66203,252.179504 205.055771,233.679169 190.134967,228 C175.214164,222.320831 158.978816,229.46283 145.634967,240 C132.291119,250.53717 121.838771,264.469512 123.5,282.615695 C125.161229,300.761879 138.936036,323.121903 152.710843,345.481928 " transform="matrix(0.967198626,-0.254021294,0.254021294,0.967198626,0,0)" fill="#46a2c2" stroke="#efefef" stroke-width="2" stroke-linecap="round"/>
		</g>
	</g>
	<g transform="matrix(1.5,0,0,1.5,-127.22,-102.07)">
		<path d="M239.759036,218.373494C247.736647,218.373494 254.216867,224.853714 254.216867,232.831325 C254.216867,240.808937 247.736647,247.289157 239.759036,247.289157 C231.781425,247.289157 225.301205,240.808937 225.301205,232.831325 C225.301205,224.853714 231.781425,218.373494 239.759036,218.373494 Z" fill="#000000" stroke="#c3d44d" stroke-width="12"/>
	</g>
</g></g></svg>